<svg width="115" height="115" viewBox="0 0 115 115" fill="none" xmlns="http://www.w3.org/2000/svg">
<path d="M7.4442 57.5C7.4442 29.8374 29.8633 7.42762 57.5 7.42762C71.2302 7.42762 83.6645 12.9527 92.713 21.9126L97.9568 16.6405C87.5726 6.35803 73.2759 0 57.5 0C25.7353 0 0 25.752 0 57.5C0 89.248 25.7353 115 57.5 115C89.2647 115 115 89.248 115 57.5C115 53.8983 114.487 47.3831 114.033 46.9472C113.58 46.5113 68.6663 46.9472 68.6663 46.9472C67.5755 46.9285 65.6184 48.985 61.2221 54.0423C61.2221 54.0423 105.374 53.9143 106.016 54.0423C106.657 54.1704 107.551 56.0657 107.553 58.0123C107.279 85.4387 84.9659 107.572 57.5 107.572C29.8633 107.572 7.4442 85.1626 7.4442 57.5Z" fill="white"/>
<path d="M84.8885 35.0137C73.8222 21.5761 54.2403 17.9744 38.9319 27.2924C27.4826 34.2615 21.6028 48.0886 22.4212 61.2138H100.286C100.098 63.3532 99.7508 65.541 99.2479 67.6238C96.8348 78.2053 89.859 87.2013 80.4261 93.4467C65.0445 103.631 45.503 102.64 31.3989 92.4342C29.5127 91.0693 27.7239 89.5398 26.0554 87.8508C32.6239 86.3116 34.8503 85.9631 35.7694 86.4214C47.4407 94.8671 63.6005 95.6726 76.3102 87.2577C83.6184 82.419 88.8999 75.8837 91.2893 68.5134H16.3002C12.0876 51.0932 18.5312 31.0095 35.0551 20.9516C53.5748 9.67883 77.2516 14.0408 90.64 30.2981L84.8885 35.0137Z" fill="white"/>
</svg>
