<svg width="25" height="24" viewBox="0 0 25 24" fill="none" xmlns="http://www.w3.org/2000/svg">
<path d="M12.6771 5.8467C9.27185 5.8467 6.52517 8.594 6.52517 12C6.52517 15.406 9.27185 18.1533 12.6771 18.1533C16.0823 18.1533 18.829 15.406 18.829 12C18.829 8.594 16.0823 5.8467 12.6771 5.8467ZM12.6771 16.0004C10.4765 16.0004 8.67754 14.2064 8.67754 12C8.67754 9.7936 10.4712 7.99955 12.6771 7.99955C14.883 7.99955 16.6766 9.7936 16.6766 12C16.6766 14.2064 14.8777 16.0004 12.6771 16.0004ZM20.5156 5.595C20.5156 6.39295 19.8731 7.03024 19.0807 7.03024C18.2829 7.03024 17.6458 6.38759 17.6458 5.595C17.6458 4.80241 18.2883 4.15977 19.0807 4.15977C19.8731 4.15977 20.5156 4.80241 20.5156 5.595ZM24.5901 7.05166C24.4991 5.12909 24.06 3.42608 22.6519 2.02298C21.2491 0.619881 19.5465 0.180743 17.6243 0.0843467C15.6433 -0.0281156 9.70554 -0.0281156 7.7245 0.0843467C5.80772 0.175388 4.10509 0.614526 2.69695 2.01763C1.28881 3.42073 0.855122 5.12373 0.758747 7.0463C0.64631 9.02778 0.64631 14.9669 0.758747 16.9483C0.849768 18.8709 1.28881 20.5739 2.69695 21.977C4.10509 23.3801 5.80236 23.8193 7.7245 23.9157C9.70554 24.0281 15.6433 24.0281 17.6243 23.9157C19.5465 23.8246 21.2491 23.3855 22.6519 21.977C24.0547 20.5739 24.4937 18.8709 24.5901 16.9483C24.7025 14.9669 24.7025 9.03314 24.5901 7.05166ZM22.0308 19.0744C21.6132 20.1241 20.8047 20.9327 19.7499 21.3558C18.1705 21.9824 14.4226 21.8378 12.6771 21.8378C10.9316 21.8378 7.17838 21.977 5.60426 21.3558C4.55484 20.9381 3.74637 20.1294 3.32339 19.0744C2.69695 17.4946 2.84151 13.7458 2.84151 12C2.84151 10.2542 2.70231 6.50006 3.32339 4.92558C3.74101 3.87593 4.54949 3.06728 5.60426 2.6442C7.18373 2.01763 10.9316 2.16222 12.6771 2.16222C14.4226 2.16222 18.1758 2.02298 19.7499 2.6442C20.7993 3.06192 21.6078 3.87058 22.0308 4.92558C22.6572 6.50541 22.5127 10.2542 22.5127 12C22.5127 13.7458 22.6572 17.4999 22.0308 19.0744Z" fill="white"/>
</svg>
