<svg width="23" height="22" viewBox="0 0 23 22" fill="none" xmlns="http://www.w3.org/2000/svg">
<path d="M21.1031 0.5H2.24102C1.37673 0.5 0.6745 1.17969 0.6745 2.01406V19.9859C0.6745 20.8203 1.37673 21.5 2.24102 21.5H21.1031C21.9674 21.5 22.6745 20.8203 22.6745 19.9859V2.01406C22.6745 1.17969 21.9674 0.5 21.1031 0.5ZM7.32361 18.5H4.06289V8.47812H7.32852V18.5H7.32361ZM5.69325 7.10938C4.64727 7.10938 3.80262 6.29844 3.80262 5.30469C3.80262 4.31094 4.64727 3.5 5.69325 3.5C6.73432 3.5 7.58387 4.31094 7.58387 5.30469C7.58387 6.30312 6.73923 7.10938 5.69325 7.10938ZM19.5464 18.5H16.2857V13.625C16.2857 12.4625 16.2611 10.9672 14.5915 10.9672C12.8924 10.9672 12.6321 12.2328 12.6321 13.5406V18.5H9.37138V8.47812H12.4995V9.84687H12.5437C12.9807 9.05937 14.0464 8.22969 15.6325 8.22969C18.9325 8.22969 19.5464 10.3062 19.5464 13.0062V18.5Z" fill="white"/>
</svg>
