<svg width="32" height="32" viewBox="0 0 32 32" fill="none" xmlns="http://www.w3.org/2000/svg">
<path d="M2.07143 16C2.07143 8.30259 8.30979 2.06682 16 2.06682C19.8206 2.06682 23.2806 3.60424 25.7984 6.09741L27.2575 4.63039C24.368 1.76919 20.3898 0 16 0C7.16112 0 0 7.16577 0 16C0 24.8342 7.16112 32 16 32C24.8389 32 32 24.8342 32 16C32 14.9978 31.8571 13.1849 31.7309 13.0636C31.6048 12.9423 19.1071 13.0636 19.1071 13.0636C18.8036 13.0584 18.259 13.6306 17.0357 15.0379C17.0357 15.0379 29.3214 15.0022 29.5 15.0379C29.6786 15.0735 29.9273 15.6009 29.9279 16.1425C29.8514 23.7742 23.6427 29.9332 16 29.9332C8.30979 29.9332 2.07143 23.6974 2.07143 16Z" fill="black"/>
<path d="M23.6211 9.74293C20.5418 6.00377 15.093 5.00157 10.8332 7.59441C7.64733 9.53364 6.01122 13.3812 6.23894 17.0334H27.9056C27.8534 17.6287 27.7567 18.2375 27.6168 18.8171C26.9453 21.7615 25.0043 24.2647 22.3794 26.0026C18.0993 28.8364 12.6617 28.5608 8.73709 25.7208C8.21223 25.341 7.71447 24.9154 7.2502 24.4454C9.07797 24.0171 9.69748 23.9202 9.95322 24.0477C13.2009 26.3978 17.6975 26.6219 21.2341 24.2804C23.2677 22.934 24.7374 21.1155 25.4022 19.0646H4.53571C3.3635 14.2172 5.15651 8.62872 9.75446 5.83C14.9078 2.69324 21.4961 3.90701 25.2216 8.43079L23.6211 9.74293Z" fill="black"/>
</svg>
