<svg width="23" height="24" viewBox="0 0 23 24" fill="none" xmlns="http://www.w3.org/2000/svg">
<path d="M22.6249 18.4065C22.401 18.9764 21.4545 19.3951 19.7305 19.6871C19.6419 19.8177 19.5683 20.3755 19.4509 20.81C19.3811 21.0709 19.2093 21.2257 18.9298 21.2257L18.9171 21.2255C18.5134 21.2255 18.0919 21.0229 17.2476 21.0229C16.1081 21.0229 15.7153 21.3061 14.8305 21.9879C13.8924 22.7116 12.9927 23.3362 11.6496 23.2723C10.2898 23.3817 9.15637 22.4797 8.51845 21.9877C7.6284 21.3013 7.23678 21.0229 6.10185 21.0229C5.29129 21.0229 4.78116 21.2442 4.43243 21.2442C4.08554 21.2442 3.95062 21.0134 3.89867 20.8204C3.78253 20.3897 3.70944 19.8237 3.61839 19.6893C2.72984 19.5389 0.726162 19.1576 0.675115 18.1823C0.668927 18.0597 0.704435 17.939 0.774828 17.8432C0.84522 17.7475 0.945541 17.6835 1.05655 17.6634C4.04644 17.1265 5.39312 13.7774 5.44911 13.6353C5.45229 13.627 5.45577 13.6191 5.4593 13.6111C5.61884 13.2578 5.65455 12.962 5.56513 12.7321C5.34813 12.1745 4.41047 11.9744 4.01598 11.8041C2.99697 11.3651 2.85518 10.8606 2.91546 10.5149C3.02018 9.91321 3.84896 9.54294 4.33351 9.79053C4.71675 9.98652 5.05724 10.0857 5.3453 10.0857C5.56109 10.0857 5.69816 10.0293 5.77327 9.98394C5.68548 8.29944 5.46815 5.89222 6.01763 4.54789C7.46881 0.998612 10.5446 0.7228 11.4522 0.7228C11.4927 0.7228 11.845 0.718628 11.8866 0.718628C14.1273 0.718628 16.2803 1.97394 17.3317 4.54564C17.8807 5.88861 17.6647 8.28589 17.5764 9.98357C17.6444 10.0244 17.7636 10.0746 17.9459 10.0838C18.2208 10.0704 18.5395 9.97185 18.8942 9.79053C19.1557 9.65713 19.5132 9.67518 19.7742 9.79325L19.7754 9.79372C20.1826 9.95239 20.4388 10.2725 20.4453 10.6314C20.4532 11.0883 20.0791 11.4829 19.3333 11.8041C19.2423 11.8432 19.1316 11.8817 19.0139 11.9225C18.5929 12.068 17.9569 12.2883 17.7843 12.732C17.695 12.9619 17.7303 13.2575 17.89 13.6108C17.8938 13.6187 17.8972 13.6269 17.9003 13.635C17.9562 13.777 19.3017 17.1253 22.293 17.6631C22.5691 17.7127 22.7726 18.0324 22.6249 18.4065Z" fill="white"/>
</svg>
