<svg width="25" height="18" viewBox="0 0 25 18" fill="none" xmlns="http://www.w3.org/2000/svg">
<path d="M24.173 2.81639C23.897 1.7078 23.0837 0.834703 22.0511 0.538406C20.1795 0 12.6745 0 12.6745 0C12.6745 0 5.16953 0 3.29786 0.538406C2.26527 0.83475 1.45202 1.7078 1.176 2.81639C0.6745 4.82578 0.6745 9.01819 0.6745 9.01819C0.6745 9.01819 0.6745 13.2106 1.176 15.22C1.45202 16.3286 2.26527 17.1653 3.29786 17.4616C5.16953 18 12.6745 18 12.6745 18C12.6745 18 20.1795 18 22.0511 17.4616C23.0837 17.1653 23.897 16.3286 24.173 15.22C24.6745 13.2106 24.6745 9.01819 24.6745 9.01819C24.6745 9.01819 24.6745 4.82578 24.173 2.81639ZM10.2199 12.8246V5.2118L16.4926 9.01828L10.2199 12.8246Z" fill="white"/>
</svg>
